<?xml version="1.0" standalone="no"?>
<!DOCTYPE svg PUBLIC "-//W3C//DTD SVG 20010904//EN"
 "http://www.w3.org/TR/2001/REC-SVG-20010904/DTD/svg10.dtd">
<svg version="1.0" xmlns="http://www.w3.org/2000/svg"
 width="500.000000pt" height="500.000000pt" viewBox="0 0 500.000000 500.000000"
 preserveAspectRatio="xMidYMid meet">
<metadata>
Created by potrace 1.14, written by Peter Selinger 2001-2017
</metadata>
<g transform="translate(0.000000,500.000000) scale(0.100000,-0.100000)"
fill="#000000" stroke="none">
<path d="M0 2500 l0 -2500 2500 0 2500 0 0 2500 0 2500 -2500 0 -2500 0 0
-2500z m2800 1395 c457 -103 830 -389 1023 -786 l52 -106 160 -6 c419 -17 707
-87 837 -205 48 -44 68 -85 68 -144 -1 -60 -28 -114 -94 -185 -139 -150 -405
-301 -799 -453 l-149 -58 -32 -75 c-186 -427 -538 -734 -976 -850 -136 -37
-235 -49 -391 -49 -385 1 -734 144 -1014 414 l-102 98 -195 0 c-724 0 -1156
147 -1113 379 32 171 318 379 784 570 68 28 126 50 128 47 2 -2 -34 -24 -79
-50 -231 -130 -334 -276 -266 -376 33 -49 107 -96 198 -124 79 -25 234 -56
282 -56 l27 0 -24 58 c-93 228 -116 544 -60 818 51 249 189 511 367 699 229
242 500 388 833 450 108 20 429 14 535 -10z"/>
<path d="M3906 2918 c38 -112 65 -261 71 -390 3 -65 9 -118 13 -118 20 0 222
145 263 189 156 167 74 297 -231 367 -153 34 -145 38 -116 -48z"/>
<path d="M1213 2744 c-3 -9 -2 -24 4 -33 8 -13 36 -17 149 -21 149 -6 165 -10
187 -44 30 -45 25 -97 -12 -138 l-29 -33 -149 -5 -148 -5 -3 -151 c-2 -123 0
-153 12 -163 11 -9 20 -10 35 -1 19 10 21 20 21 130 l0 120 112 0 c92 0 119 4
154 20 132 64 134 253 3 320 -33 17 -59 20 -184 20 -126 0 -146 -2 -152 -16z"/>
<path d="M2737 2593 c-4 -3 -7 -70 -7 -147 0 -118 4 -147 20 -181 39 -81 88
-115 174 -122 92 -8 157 30 202 117 25 50 33 295 10 325 -12 16 -18 18 -33 9
-16 -10 -19 -30 -23 -152 -5 -152 -11 -170 -72 -215 -54 -40 -150 -16 -188 46
-17 27 -20 51 -20 160 0 71 -5 137 -10 148 -10 19 -40 26 -53 12z"/>
</g>
</svg>
